<?xml version="1.0" standalone="no"?>
<!DOCTYPE svg PUBLIC "-//W3C//DTD SVG 20010904//EN"
 "http://www.w3.org/TR/2001/REC-SVG-20010904/DTD/svg10.dtd">
<svg version="1.0" xmlns="http://www.w3.org/2000/svg"
 width="167.000000pt" height="192.000000pt" viewBox="0 0 167.000000 192.000000"
 preserveAspectRatio="xMidYMid meet">
<metadata>
Created by potrace 1.16, written by Peter Selinger 2001-2019
</metadata>
<g transform="translate(0.000000,192.000000) scale(0.100000,-0.100000)"
fill="#000000" stroke="none">
<path d="M194 1836 c-3 -7 -3 -260 -1 -562 3 -530 4 -552 25 -634 72 -274 251
-462 521 -549 80 -26 102 -26 187 0 218 67 380 199 469 383 83 170 86 197 83
828 l-3 543 -638 3 c-533 2 -638 0 -643 -12z m631 -374 c-26 -52 -47 -172 -41
-232 7 -59 33 -150 44 -150 4 0 6 75 4 167 l-3 168 55 29 c31 17 57 28 60 25
7 -7 157 -392 153 -395 -1 -2 -56 -7 -122 -11 -80 -5 -120 -12 -123 -20 -3
-10 20 -13 90 -14 51 0 113 -4 138 -8 44 -7 45 -7 20 -20 -22 -13 -63 -15
-225 -10 -37 1 -143 1 -207 0 -41 -1 -49 3 -69 31 l-22 31 34 -6 c46 -9 208
-11 216 -4 12 13 -30 60 -70 77 -59 25 -116 33 -167 21 -25 -5 -46 -9 -47 -7
-2 2 62 85 143 185 80 101 148 181 150 178 2 -2 -3 -18 -11 -35z m-377 -529
c36 -187 161 -332 402 -467 57 -31 61 -36 36 -36 -40 0 -116 39 -109 56 3 10
0 12 -10 8 -9 -3 -40 11 -74 34 -66 45 -87 67 -79 81 3 5 -2 7 -13 4 -14 -4
-30 9 -61 48 -59 75 -86 129 -68 140 10 7 9 9 -4 9 -18 0 -41 58 -57 143 -7
40 -6 47 8 47 12 0 20 -17 29 -67z m227 50 c44 -3 95 -6 113 -5 17 0 55 0 82
0 142 -1 182 0 264 7 l88 8 -7 -34 c-14 -73 -10 -69 -93 -70 -42 0 -99 -1
-127 -2 -27 0 -72 3 -100 7 l-50 8 30 -21 c17 -12 44 -24 62 -27 32 -6 34 -12
24 -65 -1 -7 -30 -18 -66 -25 -11 -3 -35 -9 -53 -15 -27 -9 -31 -13 -21 -25
18 -22 -7 -17 -29 6 -13 14 -40 23 -91 29 -39 5 -78 14 -85 20 -19 16 -27 51
-13 51 7 0 41 14 75 30 42 20 73 28 90 25 22 -4 23 -4 7 3 -11 5 -84 8 -163 8
-130 -1 -164 4 -129 17 7 3 5 6 -5 6 -10 1 -18 5 -18 10 0 5 -3 23 -7 41 l-6
33 74 -7 c41 -5 110 -11 154 -13z m628 -435 l52 5 -83 -78 c-46 -43 -92 -95
-103 -117 -20 -38 -20 -40 -2 -54 10 -7 14 -14 10 -14 -12 0 -70 33 -79 44 -8
12 -60 -23 -162 -108 -44 -36 -85 -66 -93 -66 -7 0 -43 26 -80 57 -93 79 -161
123 -189 123 -18 0 -22 4 -17 18 5 14 3 13 -10 -3 -23 -28 -21 -33 11 -27 26
4 26 4 7 -12 -28 -22 -32 -20 -45 18 -7 22 -42 64 -96 115 -74 70 -81 80 -63
86 11 4 32 4 46 0 24 -6 24 -4 18 27 -7 33 -7 33 55 -27 34 -33 66 -70 71 -82
8 -21 10 -21 41 -9 31 14 34 13 117 -44 136 -90 113 -89 236 -10 60 39 112 70
116 70 24 0 61 -23 69 -42 8 -18 8 -15 4 15 -6 35 -3 41 52 100 56 60 59 62
62 36 3 -25 5 -26 55 -21z"/>
</g>
</svg>
